<?xml version="1.0" encoding="iso-8859-1"?>
<!-- Generator: Adobe Illustrator 19.0.0, SVG Export Plug-In . SVG Version: 6.00 Build 0)  -->
<svg xmlns="http://www.w3.org/2000/svg" xmlns:xlink="http://www.w3.org/1999/xlink" version="1.1" id="Layer_1" x="0px" y="0px" viewBox="0 0 512 512" style="enable-background:new 0 0 512 512;" xml:space="preserve">
<path style="fill:#5B5D6E;" d="M386.446,503.847H125.554c-33.481,0-60.875-27.394-60.875-60.875l0,0  c0-33.481,27.394-60.875,60.875-60.875h260.892c33.481,0,60.875,27.394,60.875,60.875l0,0  C447.321,476.454,419.927,503.847,386.446,503.847z"/>
<path style="fill:#FFDC64;" d="M290.786,112.51h-69.571c-28.818,0-52.178-23.361-52.178-52.178l0,0  c0-28.818,23.361-52.178,52.178-52.178h69.571c28.818,0,52.178,23.361,52.178,52.178l0,0  C342.964,89.149,319.603,112.51,290.786,112.51z"/>
<path style="fill:#FFC850;" d="M290.786,86.42h-69.571c-14.409,0-26.089-11.68-26.089-26.089l0,0  c0-14.409,11.68-26.089,26.089-26.089h69.571c14.409,0,26.089,11.68,26.089,26.089l0,0C316.875,74.74,305.194,86.42,290.786,86.42z"/>
<path style="fill:#7F8499;" d="M369.053,164.688c14.409,0,26.089,11.68,26.089,26.089c0,14.409-11.68,26.089-26.089,26.089H351.66  v-52.178H369.053z"/>
<circle style="fill:#FFDC64;" cx="447.321" cy="277.741" r="17.393"/>
<rect x="212.518" y="295.134" style="fill:#7F8499;" width="86.964" height="52.178"/>
<path style="fill:#FFDC64;" d="M360.357,382.098H151.643v-17.393c0-9.606,7.787-17.393,17.393-17.393h173.928  c9.606,0,17.393,7.786,17.393,17.393V382.098z"/>
<path style="fill:#FFC850;" d="M221.214,347.312h-52.178c-9.605,0-17.393,7.786-17.393,17.393v17.393h52.178v-17.393  C203.822,355.099,211.609,347.312,221.214,347.312z"/>
<g>
	<rect x="212.518" y="295.134" style="fill:#707487;" width="86.964" height="26.089"/>
	<rect x="229.911" y="112.51" style="fill:#707487;" width="52.178" height="34.786"/>
</g>
<g>
	<circle style="fill:#FFFFFF;" cx="221.214" cy="60.331" r="17.393"/>
	<circle style="fill:#FFFFFF;" cx="290.786" cy="60.331" r="17.393"/>
</g>
<path style="fill:#7F8499;" d="M142.947,164.688c-14.409,0-26.089,11.68-26.089,26.089c0,14.409,11.68,26.089,26.089,26.089h17.393  v-52.178H142.947z"/>
<circle style="fill:#FFDC64;" cx="64.679" cy="277.741" r="17.393"/>
<path style="fill:#959CB5;" d="M169.036,260.348v17.393c0,9.605,7.788,17.393,17.393,17.393h139.142  c9.605,0,17.393-7.788,17.393-17.393v-17.393H169.036z"/>
<path style="fill:#FFDC64;" d="M342.964,260.348H169.036c-9.606,0-17.393-7.787-17.393-17.393v-78.268  c0-9.606,7.787-17.393,17.393-17.393h173.928c9.606,0,17.393,7.787,17.393,17.393v78.268  C360.357,252.562,352.57,260.348,342.964,260.348z"/>
<path style="fill:#FFC850;" d="M203.822,242.955v-78.268c0-9.606,7.788-17.393,17.393-17.393h-52.178  c-9.605,0-17.393,7.787-17.393,17.393v78.268c0,9.605,7.788,17.393,17.393,17.393h52.178  C211.609,260.348,203.822,252.561,203.822,242.955z"/>
<g>
	<path style="fill:#7F8499;" d="M125.554,469.062c-14.388,0-26.089-11.701-26.089-26.089c0-14.388,11.701-26.089,26.089-26.089   s26.089,11.701,26.089,26.089C151.643,457.361,139.942,469.062,125.554,469.062z"/>
	<path style="fill:#7F8499;" d="M212.518,469.062c-14.388,0-26.089-11.701-26.089-26.089c0-14.388,11.701-26.089,26.089-26.089   c14.388,0,26.089,11.701,26.089,26.089C238.607,457.361,226.906,469.062,212.518,469.062z"/>
	<path style="fill:#7F8499;" d="M299.482,469.062c-14.388,0-26.089-11.701-26.089-26.089c0-14.388,11.701-26.089,26.089-26.089   c14.388,0,26.089,11.701,26.089,26.089C325.571,457.361,313.87,469.062,299.482,469.062z"/>
	<path style="fill:#7F8499;" d="M386.446,469.062c-14.388,0-26.089-11.701-26.089-26.089c0-14.388,11.701-26.089,26.089-26.089   c14.388,0,26.089,11.701,26.089,26.089C412.535,457.361,400.834,469.062,386.446,469.062z"/>
</g>
<path d="M151.643,434.82c-4.504,0-8.153,3.65-8.153,8.153c0,9.89-8.046,17.936-17.936,17.936s-17.936-8.046-17.936-17.936  c0-9.89,8.046-17.936,17.936-17.936c4.504,0,8.153-3.65,8.153-8.153c0-4.503-3.649-8.153-8.153-8.153  c-18.881,0-34.242,15.361-34.242,34.242c0,18.881,15.361,34.242,34.242,34.242s34.242-15.361,34.242-34.242  C159.796,438.47,156.147,434.82,151.643,434.82z"/>
<path d="M325.571,434.82c-4.504,0-8.153,3.65-8.153,8.153c0,9.89-8.046,17.936-17.936,17.936s-17.936-8.046-17.936-17.936  c0-9.89,8.046-17.936,17.936-17.936c4.504,0,8.153-3.65,8.153-8.153c0-4.503-3.649-8.153-8.153-8.153  c-18.881,0-34.242,15.361-34.242,34.242c0,18.881,15.361,34.242,34.242,34.242c18.881,0,34.242-15.361,34.242-34.242  C333.724,438.47,330.075,434.82,325.571,434.82z"/>
<path d="M238.607,434.82c-4.504,0-8.153,3.65-8.153,8.153c0,9.89-8.046,17.936-17.936,17.936c-9.89,0-17.936-8.046-17.936-17.936  c0-9.89,8.046-17.936,17.936-17.936c4.504,0,8.153-3.65,8.153-8.153c0-4.503-3.649-8.153-8.153-8.153  c-18.881,0-34.242,15.361-34.242,34.242c0,18.881,15.361,34.242,34.242,34.242s34.242-15.361,34.242-34.242  C246.76,438.47,243.111,434.82,238.607,434.82z"/>
<path d="M386.446,477.214c18.881,0,34.242-15.361,34.242-34.242c0-4.503-3.649-8.153-8.153-8.153c-4.504,0-8.153,3.65-8.153,8.153  c0,9.89-8.046,17.936-17.936,17.936c-9.89,0-17.936-8.046-17.936-17.936c0-9.89,8.046-17.936,17.936-17.936  c4.504,0,8.153-3.65,8.153-8.153c0-4.503-3.649-8.153-8.153-8.153c-18.881,0-34.242,15.361-34.242,34.242  C352.204,461.853,367.565,477.214,386.446,477.214z"/>
<path d="M246.76,60.331c0-14.086-11.46-25.546-25.546-25.546s-25.546,11.46-25.546,25.546s11.46,25.546,25.546,25.546  S246.76,74.417,246.76,60.331z M221.214,69.571c-5.095,0-9.24-4.145-9.24-9.24c0-5.095,4.145-9.24,9.24-9.24  c5.095,0,9.24,4.145,9.24,9.24C230.454,65.426,226.309,69.571,221.214,69.571z"/>
<path d="M290.786,85.877c14.086,0,25.546-11.46,25.546-25.546s-11.46-25.546-25.546-25.546c-14.086,0-25.546,11.46-25.546,25.546  S276.7,85.877,290.786,85.877z M290.786,51.091c5.095,0,9.24,4.145,9.24,9.24c0,5.095-4.145,9.24-9.24,9.24  c-5.095,0-9.24-4.145-9.24-9.24C281.546,55.236,285.691,51.091,290.786,51.091z"/>
<path d="M472.866,277.741c0-14.086-11.46-25.546-25.546-25.546c-1.548,0-3.062,0.146-4.535,0.411l-41.38-49.656  c-0.079-0.095-0.166-0.178-0.248-0.27c1.381-3.71,2.138-7.72,2.138-11.904c0-18.881-15.361-34.242-34.242-34.242h-1.885  c-3.411-10.099-12.969-17.393-24.204-17.393h-52.723v-18.48h0.544c33.267,0,60.331-27.064,60.331-60.331S324.053,0,290.786,0  h-69.571c-33.267,0-60.331,27.064-60.331,60.331s27.064,60.331,60.331,60.331h0.544v18.48h-52.722  c-11.236,0-20.793,7.294-24.204,17.393h-1.885c-18.881,0-34.242,15.361-34.242,34.242c0,4.185,0.758,8.195,2.138,11.904  c-0.083,0.09-0.17,0.174-0.248,0.268l-41.38,49.656c-1.474-0.265-2.988-0.411-4.536-0.411c-14.086,0-25.546,11.46-25.546,25.546  c0,6.715,2.608,12.828,6.859,17.393c-4.251,4.565-6.859,10.678-6.859,17.393v34.786c0,4.503,3.649,8.153,8.153,8.153h17.393  c4.504,0,8.153-3.65,8.153-8.153c0-4.503-3.649-8.153-8.153-8.153h-9.24v-26.633c0-5.095,4.145-9.24,9.24-9.24  c5.095,0,9.24,4.145,9.24,9.24c0,4.503,3.649,8.153,8.153,8.153s8.153-3.65,8.153-8.153c0-6.715-2.608-12.828-6.859-17.393  c4.251-4.565,6.859-10.678,6.859-17.393c0-6.542-2.474-12.514-6.532-17.038l36.774-44.129c6.02,5.253,13.882,8.445,22.48,8.445  h0.544v17.936c0,11.236,7.294,20.793,17.393,24.204v10.581c0,14.086,11.46,25.546,25.546,25.546h17.936v35.873h-35.329  c-14.086,0-25.546,11.46-25.546,25.546v9.24h-17.936c-38.062,0-69.028,30.966-69.028,69.028S87.492,512,125.554,512h260.892  c38.062,0,69.028-30.966,69.028-69.028s-30.966-69.028-69.028-69.028H368.51v-9.24c0-14.086-11.46-25.546-25.546-25.546h-35.329  v-35.873h17.936c14.086,0,25.546-11.46,25.546-25.546V267.16c10.099-3.411,17.393-12.969,17.393-24.204v-17.936h0.544  c8.599,0,16.46-3.193,22.48-8.445l36.774,44.129c-4.058,4.524-6.532,10.497-6.532,17.038c0,6.715,2.608,12.828,6.859,17.393  c-4.251,4.565-6.859,10.678-6.859,17.393c0,4.503,3.649,8.153,8.153,8.153c4.504,0,8.153-3.65,8.153-8.153  c0-5.095,4.145-9.24,9.24-9.24s9.24,4.145,9.24,9.24v26.633h-9.24c-4.504,0-8.153,3.65-8.153,8.153c0,4.503,3.649,8.153,8.153,8.153  h17.393c4.504,0,8.153-3.65,8.153-8.153v-34.786c0-6.715-2.608-12.828-6.859-17.393  C470.258,290.569,472.866,284.456,472.866,277.741z M64.679,268.501c5.095,0,9.24,4.145,9.24,9.24s-4.145,9.24-9.24,9.24  c-5.095,0-9.24-4.145-9.24-9.24C55.439,272.646,59.584,268.501,64.679,268.501z M177.189,60.331  c0-24.276,19.75-44.025,44.025-44.025h69.571c24.276,0,44.025,19.75,44.025,44.025s-19.75,44.025-44.025,44.025h-69.571  C196.938,104.357,177.189,84.607,177.189,60.331z M238.064,120.662h35.873v18.48h-35.873V120.662z M142.947,208.713  c-9.89,0-17.936-8.046-17.936-17.936c0-9.89,8.046-17.936,17.936-17.936h0.544v35.873H142.947z M439.168,442.972  c0,29.071-23.651,52.722-52.722,52.722H125.554c-29.071,0-52.722-23.651-52.722-52.722c0-29.071,23.651-52.722,52.722-52.722  h260.892C415.517,390.251,439.168,413.901,439.168,442.972z M299.482,355.465h43.482c5.095,0,9.24,4.145,9.24,9.24v9.24H159.796  v-9.24c0-5.095,4.145-9.24,9.24-9.24h95.661c4.504,0,8.153-3.65,8.153-8.153c0-4.503-3.649-8.153-8.153-8.153h-44.027v-35.873  h70.658v44.025C291.329,351.815,294.978,355.465,299.482,355.465z M325.571,286.981H186.429c-5.095,0-9.24-4.145-9.24-9.24v-9.24  h157.622v9.24C334.811,282.836,330.666,286.981,325.571,286.981z M352.204,242.955c0,5.095-4.145,9.24-9.24,9.24H169.036  c-5.095,0-9.24-4.145-9.24-9.24v-78.268c0-5.095,4.145-9.24,9.24-9.24h173.928c5.095,0,9.24,4.145,9.24,9.24V242.955z   M369.053,208.713h-0.544v-35.873h0.544c9.89,0,17.936,8.046,17.936,17.936C386.989,200.667,378.943,208.713,369.053,208.713z   M456.561,277.741c0,5.095-4.145,9.24-9.24,9.24s-9.24-4.145-9.24-9.24c0-5.095,4.145-9.24,9.24-9.24  S456.561,272.646,456.561,277.741z"/>
<path d="M264.698,173.928h-78.269c-4.504,0-8.153,3.65-8.153,8.153s3.649,8.153,8.153,8.153h78.269c4.504,0,8.153-3.65,8.153-8.153  S269.201,173.928,264.698,173.928z"/>
<path d="M325.571,173.928h-26.09c-4.504,0-8.153,3.65-8.153,8.153s3.649,8.153,8.153,8.153h26.09c4.504,0,8.153-3.65,8.153-8.153  S330.075,173.928,325.571,173.928z"/>
<g>
</g>
<g>
</g>
<g>
</g>
<g>
</g>
<g>
</g>
<g>
</g>
<g>
</g>
<g>
</g>
<g>
</g>
<g>
</g>
<g>
</g>
<g>
</g>
<g>
</g>
<g>
</g>
<g>
</g>
</svg>
